ffmpeg started on 2025-06-12 at 17:58:58
Report written to "D:\Convert\FFMetrics\reports\ssim_report-6.txt"
Log level: 32
Command line:
ffmpeg -hide_banner -nostdin -i "G:\\\xc0\xed\xe8\xec\xe5\\[\xd2\xee\xef]\\Fate\\\xd1\xf2\xf0\xe0\xed\xed\xe0\xff \xef\xee\xe4\xe4\xe5\xeb\xea\xe0\\[JamClub] Fate Strange Fake - 01 (1080p)_HEVC.mkv" -i "G:\\\xc0\xed\xe8\xec\xe5\\[\xd2\xee\xef]\\Fate\\\xd1\xf2\xf0\xe0\xed\xed\xe0\xff \xef\xee\xe4\xe4\xe5\xeb\xea\xe0\\[JamClub] Fate Strange Fake - 01 (1080p).mp4" -lavfi "[0:v]settb=AVTB,setpts=PTS-STARTPTS,format=pix_fmts=yuv420p10,fps=24000/1001,scale=1920:1080:flags=bicubic[main];[1:v]settb=AVTB,setpts=PTS-STARTPTS,format=pix_fmts=yuv420p,fps=24000/1001,scale=1920:1080:flags=bicubic[ref];[main][ref]ssim=eof_action=endall:stats_file='D\\:/Convert/FFMetrics/logs/ssim_logfile-6.txt'" -f null -
Input #0, matroska,webm, from 'G:\Аниме\[Топ]\Fate\Странная подделка\[JamClub] Fate Strange Fake - 01 (1080p)_HEVC.mkv':
  Metadata:
    COMPATIBLE_BRANDS: isomiso2avc1mp41
    MAJOR_BRAND     : isom
    MINOR_VERSION   : 512
    ENCODER         : Lavf61.7.100
  Duration: 00:25:11.28, start: -0.001000, bitrate: 1116 kb/s
  Stream #0:0: Video: hevc (Main 10), yuv420p10le(tv, bt709, progressive), 1920x1080 [SAR 1:1 DAR 16:9], 23.98 fps, 23.98 tbr, 1k tbn (default)
      Metadata:
        HANDLER_NAME    : VideoHandler
        VENDOR_ID       : [0][0][0][0]
        ENCODER         : Lavc61.19.100 libx265
        BPS             : 916713
        DURATION        : 00:25:10.133708333
        NUMBER_OF_FRAMES: 36207
        NUMBER_OF_BYTES : 173044851
        _STATISTICS_WRITING_APP: mkvpropedit v66.0.0 ('Josie') 64-bit
        _STATISTICS_WRITING_DATE_UTC: 2025-06-12 14:08:20
        _STATISTICS_TAGS: BPS DURATION NUMBER_OF_FRAMES NUMBER_OF_BYTES
  Stream #0:1(eng): Audio: aac (LC), 48000 Hz, stereo, fltp (default)
      Metadata:
        HANDLER_NAME    : SoundHandler
        VENDOR_ID       : [0][0][0][0]
        ENCODER         : Lavc61.19.100 aac
        BPS             : 196549
        DURATION        : 00:25:11.235000000
        NUMBER_OF_FRAMES: 70840
        NUMBER_OF_BYTES : 37129076
        _STATISTICS_WRITING_APP: mkvpropedit v66.0.0 ('Josie') 64-bit
        _STATISTICS_WRITING_DATE_UTC: 2025-06-12 14:08:20
        _STATISTICS_TAGS: BPS DURATION NUMBER_OF_FRAMES NUMBER_OF_BYTES
Input #1, mov,mp4,m4a,3gp,3g2,mj2, from 'G:\Аниме\[Топ]\Fate\Странная подделка\[JamClub] Fate Strange Fake - 01 (1080p).mp4':
  Metadata:
    major_brand     : isom
    minor_version   : 512
    compatible_brands: isomiso2avc1mp41
    encoder         : Lavf60.16.100
  Duration: 00:25:11.26, start: 0.000000, bitrate: 4479 kb/s
  Stream #1:0[0x1](und): Video: h264 (High) (avc1 / 0x31637661), yuv420p(progressive), 1920x1080 [SAR 1:1 DAR 16:9], 4284 kb/s, 23.98 fps, 23.98 tbr, 90k tbn (default)
      Metadata:
        handler_name    : VideoHandler
        vendor_id       : [0][0][0][0]
  Stream #1:1[0x2](eng): Audio: aac (LC) (mp4a / 0x6134706D), 48000 Hz, stereo, fltp, 191 kb/s (default)
      Metadata:
        handler_name    : SoundHandler
        vendor_id       : [0][0][0][0]
Stream mapping:
  Stream #0:0 (hevc) -> settb:default
  Stream #1:0 (h264) -> settb:default
  ssim:default -> Stream #0:0 (wrapped_avframe)
  Stream #0:1 -> #0:1 (aac (native) -> pcm_s16le (native))
Output #0, null, to 'pipe:':
  Metadata:
    COMPATIBLE_BRANDS: isomiso2avc1mp41
    MAJOR_BRAND     : isom
    MINOR_VERSION   : 512
    encoder         : Lavf61.7.100
  Stream #0:0: Video: wrapped_avframe, yuv420p10le(tv, bt709, progressive), 1920x1080 [SAR 1:1 DAR 16:9], q=2-31, 200 kb/s, 23.98 fps, 23.98 tbn
      Metadata:
        encoder         : Lavc61.19.100 wrapped_avframe
  Stream #0:1(eng): Audio: pcm_s16le, 48000 Hz, stereo, s16, 1536 kb/s (default)
      Metadata:
        HANDLER_NAME    : SoundHandler
        VENDOR_ID       : [0][0][0][0]
        _STATISTICS_TAGS: BPS DURATION NUMBER_OF_FRAMES NUMBER_OF_BYTES
        BPS             : 196549
        DURATION        : 00:25:11.235000000
        NUMBER_OF_FRAMES: 70840
        NUMBER_OF_BYTES : 37129076
        _STATISTICS_WRITING_APP: mkvpropedit v66.0.0 ('Josie') 64-bit
        _STATISTICS_WRITING_DATE_UTC: 2025-06-12 14:08:20
        encoder         : Lavc61.19.100 pcm_s16le
frame=  113 fps=0.0 q=-0.0 size=N/A time=00:00:04.71 bitrate=N/A speed=9.16x    frame=  276 fps=265 q=-0.0 size=N/A time=00:00:11.51 bitrate=N/A speed=11.1x    frame=  482 fps=311 q=-0.0 size=N/A time=00:00:20.10 bitrate=N/A speed=  13x    frame=  769 fps=372 q=-0.0 size=N/A time=00:00:32.07 bitrate=N/A speed=15.5x    frame= 1037 fps=401 q=-0.0 size=N/A time=00:00:43.25 bitrate=N/A speed=16.7x    frame= 1271 fps=410 q=-0.0 size=N/A time=00:00:53.01 bitrate=N/A speed=17.1x    frame= 1545 fps=427 q=-0.0 size=N/A time=00:01:04.43 bitrate=N/A speed=17.8x    frame= 1803 fps=437 q=-0.0 size=N/A time=00:01:15.20 bitrate=N/A speed=18.2x    frame= 2035 fps=438 q=-0.0 size=N/A time=00:01:24.87 bitrate=N/A speed=18.3x    frame= 2271 fps=440 q=-0.0 size=N/A time=00:01:34.71 bitrate=N/A speed=18.4x    frame= 2451 fps=431 q=-0.0 size=N/A time=00:01:42.22 bitrate=N/A speed=  18x    frame= 2681 fps=433 q=-0.0 size=N/A time=00:01:51.82 bitrate=N/A speed=18.1x    frame= 2962 fps=441 q=-0.0 size=N/A time=00:02:03.54 bitrate=N/A speed=18.4x    frame= 3215 fps=445 q=-0.0 size=N/A time=00:02:14.09 bitrate=N/A speed=18.6x    frame= 3480 fps=449 q=-0.0 size=N/A time=00:02:25.18 bitrate=N/A speed=18.7x    frame= 3747 fps=454 q=-0.0 size=N/A time=00:02:36.28 bitrate=N/A speed=18.9x    frame= 4010 fps=457 q=-0.0 size=N/A time=00:02:47.25 bitrate=N/A speed=19.1x    frame= 4225 fps=455 q=-0.0 size=N/A time=00:02:56.21 bitrate=N/A speed=  19x    frame= 4427 fps=451 q=-0.0 size=N/A time=00:03:04.64 bitrate=N/A speed=18.8x    frame= 4684 fps=454 q=-0.0 size=N/A time=00:03:15.36 bitrate=N/A speed=18.9x    frame= 4936 fps=455 q=-0.0 size=N/A time=00:03:25.87 bitrate=N/A speed=  19x    frame= 5162 fps=455 q=-0.0 size=N/A time=00:03:35.29 bitrate=N/A speed=  19x    frame= 5420 fps=457 q=-0.0 size=N/A time=00:03:46.05 bitrate=N/A speed=  19x    frame= 5694 fps=460 q=-0.0 size=N/A time=00:03:57.48 bitrate=N/A speed=19.2x    frame= 5960 fps=462 q=-0.0 size=N/A time=00:04:08.58 bitrate=N/A speed=19.3x    frame= 6210 fps=463 q=-0.0 size=N/A time=00:04:19.00 bitrate=N/A speed=19.3x    frame= 6466 fps=464 q=-0.0 size=N/A time=00:04:29.68 bitrate=N/A speed=19.3x    frame= 6710 fps=464 q=-0.0 size=N/A time=00:04:39.86 bitrate=N/A speed=19.4x    frame= 6933 fps=463 q=-0.0 size=N/A time=00:04:49.16 bitrate=N/A speed=19.3x    frame= 7162 fps=462 q=-0.0 size=N/A time=00:04:58.71 bitrate=N/A speed=19.3x    frame= 7411 fps=463 q=-0.0 size=N/A time=00:05:09.10 bitrate=N/A speed=19.3x    frame= 7669 fps=464 q=-0.0 size=N/A time=00:05:19.86 bitrate=N/A speed=19.4x    frame= 7950 fps=467 q=-0.0 size=N/A time=00:05:31.58 bitrate=N/A speed=19.5x    frame= 8209 fps=468 q=-0.0 size=N/A time=00:05:42.38 bitrate=N/A speed=19.5x    frame= 8450 fps=468 q=-0.0 size=N/A time=00:05:52.43 bitrate=N/A speed=19.5x    frame= 8689 fps=467 q=-0.0 size=N/A time=00:06:02.40 bitrate=N/A speed=19.5x    frame= 8948 fps=469 q=-0.0 size=N/A time=00:06:13.20 bitrate=N/A speed=19.5x    frame= 9194 fps=469 q=-0.0 size=N/A time=00:06:23.46 bitrate=N/A speed=19.6x    frame= 9477 fps=471 q=-0.0 size=N/A time=00:06:35.26 bitrate=N/A speed=19.6x    frame= 9744 fps=472 q=-0.0 size=N/A time=00:06:46.40 bitrate=N/A speed=19.7x    frame=10032 fps=474 q=-0.0 size=N/A time=00:06:58.41 bitrate=N/A speed=19.8x    frame=10297 fps=475 q=-0.0 size=N/A time=00:07:09.47 bitrate=N/A speed=19.8x    frame=10553 fps=475 q=-0.0 size=N/A time=00:07:20.14 bitrate=N/A speed=19.8x    frame=10747 fps=473 q=-0.0 size=N/A time=00:07:28.23 bitrate=N/A speed=19.7x    frame=10933 fps=471 q=-0.0 size=N/A time=00:07:35.99 bitrate=N/A speed=19.6x    frame=11199 fps=472 q=-0.0 size=N/A time=00:07:47.09 bitrate=N/A speed=19.7x    frame=11455 fps=472 q=-0.0 size=N/A time=00:07:57.76 bitrate=N/A speed=19.7x    frame=11714 fps=473 q=-0.0 size=N/A time=00:08:08.57 bitrate=N/A speed=19.7x    frame=11973 fps=474 q=-0.0 size=N/A time=00:08:19.37 bitrate=N/A speed=19.7x    frame=12180 fps=472 q=-0.0 size=N/A time=00:08:28.00 bitrate=N/A speed=19.7x    frame=12425 fps=472 q=-0.0 size=N/A time=00:08:38.22 bitrate=N/A speed=19.7x    frame=12720 fps=474 q=-0.0 size=N/A time=00:08:50.53 bitrate=N/A speed=19.8x    frame=12977 fps=475 q=-0.0 size=N/A time=00:09:01.24 bitrate=N/A speed=19.8x    frame=13240 fps=475 q=-0.0 size=N/A time=00:09:12.21 bitrate=N/A speed=19.8x    frame=13517 fps=476 q=-0.0 size=N/A time=00:09:23.77 bitrate=N/A speed=19.9x    frame=13788 fps=477 q=-0.0 size=N/A time=00:09:35.07 bitrate=N/A speed=19.9x    frame=14047 fps=478 q=-0.0 size=N/A time=00:09:45.87 bitrate=N/A speed=19.9x    frame=14277 fps=477 q=-0.0 size=N/A time=00:09:55.46 bitrate=N/A speed=19.9x    frame=14545 fps=478 q=-0.0 size=N/A time=00:10:06.64 bitrate=N/A speed=19.9x    frame=14822 fps=479 q=-0.0 size=N/A time=00:10:18.20 bitrate=N/A speed=  20x    frame=15081 fps=479 q=-0.0 size=N/A time=00:10:29.00 bitrate=N/A speed=  20x    frame=15368 fps=481 q=-0.0 size=N/A time=00:10:40.97 bitrate=N/A speed=  20x    frame=15649 fps=481 q=-0.0 size=N/A time=00:10:52.69 bitrate=N/A speed=20.1x    frame=15903 fps=482 q=-0.0 size=N/A time=00:11:03.28 bitrate=N/A speed=20.1x    frame=16147 fps=482 q=-0.0 size=N/A time=00:11:13.46 bitrate=N/A speed=20.1x    frame=16399 fps=482 q=-0.0 size=N/A time=00:11:23.97 bitrate=N/A speed=20.1x    frame=16657 fps=482 q=-0.0 size=N/A time=00:11:34.73 bitrate=N/A speed=20.1x    frame=16899 fps=482 q=-0.0 size=N/A time=00:11:44.87 bitrate=N/A speed=20.1x    frame=17131 fps=481 q=-0.0 size=N/A time=00:11:54.50 bitrate=N/A speed=20.1x    frame=17384 fps=481 q=-0.0 size=N/A time=00:12:05.05 bitrate=N/A speed=20.1x    frame=17641 fps=482 q=-0.0 size=N/A time=00:12:15.77 bitrate=N/A speed=20.1x    frame=17898 fps=482 q=-0.0 size=N/A time=00:12:26.49 bitrate=N/A speed=20.1x    frame=18166 fps=482 q=-0.0 size=N/A time=00:12:37.67 bitrate=N/A speed=20.1x    frame=18423 fps=483 q=-0.0 size=N/A time=00:12:48.39 bitrate=N/A speed=20.1x    frame=18701 fps=483 q=-0.0 size=N/A time=00:12:59.98 bitrate=N/A speed=20.2x    frame=18944 fps=483 q=-0.0 size=N/A time=00:13:10.12 bitrate=N/A speed=20.2x    frame=19183 fps=483 q=-0.0 size=N/A time=00:13:20.09 bitrate=N/A speed=20.1x    frame=19329 fps=480 q=-0.0 size=N/A time=00:13:26.18 bitrate=N/A speed=  20x    frame=19570 fps=480 q=-0.0 size=N/A time=00:13:36.23 bitrate=N/A speed=  20x    frame=19823 fps=480 q=-0.0 size=N/A time=00:13:46.78 bitrate=N/A speed=  20x    frame=20088 fps=481 q=-0.0 size=N/A time=00:13:57.83 bitrate=N/A speed=20.1x    frame=20372 fps=482 q=-0.0 size=N/A time=00:14:09.68 bitrate=N/A speed=20.1x    frame=20640 fps=482 q=-0.0 size=N/A time=00:14:20.86 bitrate=N/A speed=20.1x    frame=20900 fps=482 q=-0.0 size=N/A time=00:14:31.70 bitrate=N/A speed=20.1x    frame=21138 fps=482 q=-0.0 size=N/A time=00:14:41.63 bitrate=N/A speed=20.1x    frame=21372 fps=482 q=-0.0 size=N/A time=00:14:51.39 bitrate=N/A speed=20.1x    frame=21566 fps=480 q=-0.0 size=N/A time=00:14:59.48 bitrate=N/A speed=  20x    frame=21763 fps=479 q=-0.0 size=N/A time=00:15:07.69 bitrate=N/A speed=  20x    frame=21954 fps=478 q=-0.0 size=N/A time=00:15:15.66 bitrate=N/A speed=19.9x    frame=22185 fps=478 q=-0.0 size=N/A time=00:15:25.29 bitrate=N/A speed=19.9x    frame=22445 fps=478 q=-0.0 size=N/A time=00:15:36.14 bitrate=N/A speed=19.9x    frame=22700 fps=478 q=-0.0 size=N/A time=00:15:46.77 bitrate=N/A speed=  20x    frame=22986 fps=479 q=-0.0 size=N/A time=00:15:58.70 bitrate=N/A speed=  20x    frame=23191 fps=478 q=-0.0 size=N/A time=00:16:07.25 bitrate=N/A speed=19.9x    frame=23389 fps=477 q=-0.0 size=N/A time=00:16:15.51 bitrate=N/A speed=19.9x    frame=23613 fps=477 q=-0.0 size=N/A time=00:16:24.85 bitrate=N/A speed=19.9x    frame=23843 fps=476 q=-0.0 size=N/A time=00:16:34.45 bitrate=N/A speed=19.9x    frame=24103 fps=477 q=-0.0 size=N/A time=00:16:45.29 bitrate=N/A speed=19.9x    frame=24366 fps=477 q=-0.0 size=N/A time=00:16:56.26 bitrate=N/A speed=19.9x    frame=24605 fps=477 q=-0.0 size=N/A time=00:17:06.23 bitrate=N/A speed=19.9x    frame=24860 fps=477 q=-0.0 size=N/A time=00:17:16.86 bitrate=N/A speed=19.9x    frame=25116 fps=477 q=-0.0 size=N/A time=00:17:27.54 bitrate=N/A speed=19.9x    frame=25311 fps=476 q=-0.0 size=N/A time=00:17:35.67 bitrate=N/A speed=19.9x    frame=25512 fps=475 q=-0.0 size=N/A time=00:17:44.06 bitrate=N/A speed=19.8x    frame=25728 fps=475 q=-0.0 size=N/A time=00:17:53.07 bitrate=N/A speed=19.8x    frame=25978 fps=475 q=-0.0 size=N/A time=00:18:03.49 bitrate=N/A speed=19.8x    frame=26227 fps=475 q=-0.0 size=N/A time=00:18:13.88 bitrate=N/A speed=19.8x    frame=26482 fps=475 q=-0.0 size=N/A time=00:18:24.52 bitrate=N/A speed=19.8x    frame=26726 fps=475 q=-0.0 size=N/A time=00:18:34.69 bitrate=N/A speed=19.8x    frame=26976 fps=475 q=-0.0 size=N/A time=00:18:45.12 bitrate=N/A speed=19.8x    frame=27195 fps=475 q=-0.0 size=N/A time=00:18:54.25 bitrate=N/A speed=19.8x    frame=27415 fps=474 q=-0.0 size=N/A time=00:19:03.43 bitrate=N/A speed=19.8x    frame=27694 fps=475 q=-0.0 size=N/A time=00:19:15.07 bitrate=N/A speed=19.8x    frame=27948 fps=475 q=-0.0 size=N/A time=00:19:25.66 bitrate=N/A speed=19.8x    frame=28186 fps=475 q=-0.0 size=N/A time=00:19:35.59 bitrate=N/A speed=19.8x    frame=28402 fps=474 q=-0.0 size=N/A time=00:19:44.60 bitrate=N/A speed=19.8x    frame=28652 fps=475 q=-0.0 size=N/A time=00:19:55.02 bitrate=N/A speed=19.8x    frame=28897 fps=475 q=-0.0 size=N/A time=00:20:05.24 bitrate=N/A speed=19.8x    frame=29150 fps=475 q=-0.0 size=N/A time=00:20:15.79 bitrate=N/A speed=19.8x    frame=29384 fps=475 q=-0.0 size=N/A time=00:20:25.55 bitrate=N/A speed=19.8x    frame=29638 fps=475 q=-0.0 size=N/A time=00:20:36.15 bitrate=N/A speed=19.8x    frame=29904 fps=475 q=-0.0 size=N/A time=00:20:47.24 bitrate=N/A speed=19.8x    frame=30185 fps=476 q=-0.0 size=N/A time=00:20:58.96 bitrate=N/A speed=19.8x    frame=30467 fps=476 q=-0.0 size=N/A time=00:21:10.72 bitrate=N/A speed=19.9x    frame=30738 fps=477 q=-0.0 size=N/A time=00:21:22.03 bitrate=N/A speed=19.9x    frame=31009 fps=477 q=-0.0 size=N/A time=00:21:33.33 bitrate=N/A speed=19.9x    frame=31283 fps=477 q=-0.0 size=N/A time=00:21:44.76 bitrate=N/A speed=19.9x    frame=31555 fps=478 q=-0.0 size=N/A time=00:21:56.10 bitrate=N/A speed=19.9x    frame=31838 fps=478 q=-0.0 size=N/A time=00:22:07.90 bitrate=N/A speed=19.9x    frame=32108 fps=479 q=-0.0 size=N/A time=00:22:19.17 bitrate=N/A speed=  20x    frame=32390 fps=479 q=-0.0 size=N/A time=00:22:30.93 bitrate=N/A speed=  20x    frame=32657 fps=479 q=-0.0 size=N/A time=00:22:42.06 bitrate=N/A speed=  20x    frame=32923 fps=480 q=-0.0 size=N/A time=00:22:53.16 bitrate=N/A speed=  20x    frame=33202 fps=480 q=-0.0 size=N/A time=00:23:04.80 bitrate=N/A speed=  20x    frame=33482 fps=481 q=-0.0 size=N/A time=00:23:16.47 bitrate=N/A speed=  20x    frame=33746 fps=481 q=-0.0 size=N/A time=00:23:27.48 bitrate=N/A speed=20.1x    frame=34018 fps=481 q=-0.0 size=N/A time=00:23:38.83 bitrate=N/A speed=20.1x    frame=34282 fps=481 q=-0.0 size=N/A time=00:23:49.84 bitrate=N/A speed=20.1x    frame=34553 fps=482 q=-0.0 size=N/A time=00:24:01.14 bitrate=N/A speed=20.1x    frame=34830 fps=482 q=-0.0 size=N/A time=00:24:12.70 bitrate=N/A speed=20.1x    frame=35110 fps=483 q=-0.0 size=N/A time=00:24:24.37 bitrate=N/A speed=20.1x    frame=35361 fps=483 q=-0.0 size=N/A time=00:24:34.84 bitrate=N/A speed=20.1x    frame=35608 fps=483 q=-0.0 size=N/A time=00:24:45.15 bitrate=N/A speed=20.1x    frame=35869 fps=483 q=-0.0 size=N/A time=00:24:56.03 bitrate=N/A speed=20.1x    frame=36131 fps=483 q=-0.0 size=N/A time=00:25:06.96 bitrate=N/A speed=20.1x    [Parsed_ssim_10 @ 000001b6dee7bac0] SSIM Y:0.994745 (22.794350) U:0.994059 (22.261208) V:0.993627 (21.956857) All:0.994444 (22.552708)
[out#0/null @ 000001b6df168e80] video:15558KiB audio:283360KiB subtitle:0KiB other streams:0KiB global headers:0KiB muxing overhead: unknown
frame=36207 fps=483 q=-0.0 Lsize=N/A time=00:25:10.13 bitrate=N/A speed=20.2x    
